# MagicaVoxel @ Ephtracy

# group
o 

# material
mtllib Car_03.mtl
usemtl palette

# normals
vn -1 0 0
vn 1 0 0
vn 0 0 1
vn 0 0 -1
vn 0 -1 0
vn 0 1 0

# texcoords
vt 0.416016 0.5
vt 0.841797 0.5
vt 0.958984 0.5
vt 0.970703 0.5
vt 0.978516 0.5
vt 0.982422 0.5
vt 0.990234 0.5
vt 0.994141 0.5

# verts
v -0.4 0 0.6
v -0.4 0 0.3
v -0.4 0 -0.3
v -0.4 0 -0.6
v -0.4 0.1 0.7
v -0.4 0.1 0.6
v -0.4 0.1 0.5
v -0.4 0.1 0.4
v -0.4 0.1 0.3
v -0.4 0.1 -0.3
v -0.4 0.1 -0.4
v -0.4 0.1 -0.5
v -0.4 0.1 -0.6
v -0.4 0.1 -0.7
v -0.4 0.2 0.5
v -0.4 0.2 0.4
v -0.4 0.2 0.3
v -0.4 0.2 -0.3
v -0.4 0.2 -0.4
v -0.4 0.2 -0.5
v -0.4 0.2 -0.6
v -0.4 0.2 -0.7
v -0.4 0.3 0.7
v -0.4 0.3 0.6
v -0.4 0.3 0.3
v -0.4 0.3 -0.3
v -0.4 0.3 -0.6
v -0.4 0.3 -0.7
v -0.4 0.4 0.7
v -0.4 0.4 0.6
v -0.4 0.4 0.3
v -0.4 0.4 0.2
v -0.4 0.4 0
v -0.4 0.4 -0.1
v -0.4 0.4 -0.4
v -0.4 0.6 0.2
v -0.4 0.6 0.1
v -0.4 0.7 0.1
v -0.4 0.7 0
v -0.4 0.7 -0.1
v -0.4 0.7 -0.4
v -0.4 0.8 0.3
v -0.4 0.8 -0.6
v -0.3 0.2 0.8
v -0.3 0.2 0.7
v -0.3 0.2 -0.7
v -0.3 0.2 -0.8
v -0.3 0.3 0.8
v -0.3 0.3 0.7
v -0.3 0.3 -0.6
v -0.3 0.3 -0.7
v -0.3 0.3 -0.8
v -0.3 0.4 0.7
v -0.3 0.4 0.6
v -0.3 0.4 0.3
v -0.3 0.5 0.7
v -0.3 0.5 0.3
v -0.3 0.8 0.3
v -0.3 0.8 -0.6
v -0.3 0.8 -0.7
v -0.3 0.9 0.3
v -0.3 0.9 0.2
v -0.3 0.9 -0.5
v -0.3 0.9 -0.6
v -0.3 1 0.2
v -0.3 1 -0.5
v -0.2 0.1 0.8
v -0.2 0.1 0.7
v -0.2 0.2 0.8
v -0.2 0.2 0.7
v -0.2 0.4 -0.7
v -0.2 0.4 -0.8
v -0.2 0.5 0.4
v -0.2 0.5 0.3
v -0.2 0.6 0.4
v -0.2 0.6 0.3
v -0.2 0.6 -0.7
v -0.2 0.6 -0.8
v -0.1 0.3 -0.7
v -0.1 0.3 -0.8
v -0.1 0.4 -0.7
v -0.1 0.4 -0.8
v -0.1 0.6 -0.7
v -0.1 0.6 -0.8
v -0.1 0.7 -0.7
v -0.1 0.7 -0.8
v 0.2 0.9 0.2
v 0.2 0.9 -0.4
v 0.2 1 0.2
v 0.2 1 -0.4
v 0.3 0 0.6
v 0.3 0 0.3
v 0.3 0 -0.3
v 0.3 0 -0.6
v 0.3 0.1 0.6
v 0.3 0.1 0.3
v 0.3 0.1 -0.3
v 0.3 0.1 -0.6
v 0.3 0.2 0.7
v 0.3 0.2 0.6
v 0.3 0.2 0.3
v 0.3 0.2 -0.3
v 0.3 0.2 -0.6
v 0.3 0.3 0.7
v 0.3 0.3 0.6
v 0.3 0.3 0.3
v 0.3 0.3 -0.3
v 0.3 0.3 -0.6
v 0.3 0.4 0.6
v 0.3 0.4 0.3
v 0.3 0.4 0.2
v 0.3 0.4 0
v 0.3 0.4 -0.1
v 0.3 0.4 -0.4
v 0.3 0.5 0.3
v 0.3 0.5 0.2
v 0.3 0.6 0.2
v 0.3 0.6 0.1
v 0.3 0.7 0.2
v 0.3 0.7 0.1
v 0.3 0.7 0
v 0.3 0.7 -0.1
v 0.3 0.7 -0.4
v 0.3 0.8 0.2
v 0.3 0.8 -0.6
v -0.3 0 0.6
v -0.3 0 0.3
v -0.3 0 -0.3
v -0.3 0 -0.6
v -0.3 0.1 0.6
v -0.3 0.1 0.3
v -0.3 0.1 -0.3
v -0.3 0.1 -0.6
v -0.3 0.2 0.7
v -0.3 0.2 0.6
v -0.3 0.2 0.3
v -0.3 0.2 -0.3
v -0.3 0.2 -0.6
v -0.3 0.3 0.7
v -0.3 0.3 0.6
v -0.3 0.3 0.3
v -0.3 0.3 -0.3
v -0.3 0.3 -0.6
v -0.3 0.4 0.6
v -0.3 0.4 0.3
v -0.3 0.4 0.2
v -0.3 0.4 0
v -0.3 0.4 -0.1
v -0.3 0.4 -0.4
v -0.3 0.5 0.3
v -0.3 0.5 0.2
v -0.3 0.6 0.2
v -0.3 0.6 0.1
v -0.3 0.7 0.2
v -0.3 0.7 0.1
v -0.3 0.7 0
v -0.3 0.7 -0.1
v -0.3 0.7 -0.4
v -0.3 0.8 0.2
v -0.3 0.8 -0.6
v -0.2 0.9 0.2
v -0.2 0.9 -0.4
v -0.2 1 0.2
v -0.2 1 -0.4
v 0.1 0.3 -0.7
v 0.1 0.3 -0.8
v 0.1 0.4 -0.7
v 0.1 0.4 -0.8
v 0.1 0.6 -0.7
v 0.1 0.6 -0.8
v 0.1 0.7 -0.7
v 0.1 0.7 -0.8
v 0.2 0.1 0.8
v 0.2 0.1 0.7
v 0.2 0.2 0.8
v 0.2 0.2 0.7
v 0.2 0.4 -0.7
v 0.2 0.4 -0.8
v 0.2 0.5 0.4
v 0.2 0.5 0.3
v 0.2 0.6 0.4
v 0.2 0.6 0.3
v 0.2 0.6 -0.7
v 0.2 0.6 -0.8
v 0.3 0.2 0.8
v 0.3 0.2 0.7
v 0.3 0.2 -0.7
v 0.3 0.2 -0.8
v 0.3 0.3 0.8
v 0.3 0.3 0.7
v 0.3 0.3 -0.6
v 0.3 0.3 -0.7
v 0.3 0.3 -0.8
v 0.3 0.4 0.7
v 0.3 0.4 0.6
v 0.3 0.4 0.3
v 0.3 0.5 0.7
v 0.3 0.5 0.3
v 0.3 0.8 0.3
v 0.3 0.8 -0.6
v 0.3 0.8 -0.7
v 0.3 0.9 0.3
v 0.3 0.9 0.2
v 0.3 0.9 -0.5
v 0.3 0.9 -0.6
v 0.3 1 0.2
v 0.3 1 -0.5
v 0.4 0 0.6
v 0.4 0 0.3
v 0.4 0 -0.3
v 0.4 0 -0.6
v 0.4 0.1 0.7
v 0.4 0.1 0.6
v 0.4 0.1 0.5
v 0.4 0.1 0.4
v 0.4 0.1 0.3
v 0.4 0.1 -0.3
v 0.4 0.1 -0.4
v 0.4 0.1 -0.5
v 0.4 0.1 -0.6
v 0.4 0.1 -0.7
v 0.4 0.2 0.5
v 0.4 0.2 0.4
v 0.4 0.2 0.3
v 0.4 0.2 -0.3
v 0.4 0.2 -0.4
v 0.4 0.2 -0.5
v 0.4 0.2 -0.6
v 0.4 0.2 -0.7
v 0.4 0.3 0.7
v 0.4 0.3 0.6
v 0.4 0.3 0.3
v 0.4 0.3 -0.3
v 0.4 0.3 -0.6
v 0.4 0.3 -0.7
v 0.4 0.4 0.7
v 0.4 0.4 0.6
v 0.4 0.4 0.3
v 0.4 0.4 0.2
v 0.4 0.4 0
v 0.4 0.4 -0.1
v 0.4 0.4 -0.4
v 0.4 0.6 0.2
v 0.4 0.6 0.1
v 0.4 0.7 0.1
v 0.4 0.7 0
v 0.4 0.7 -0.1
v 0.4 0.7 -0.4
v 0.4 0.8 0.3
v 0.4 0.8 -0.6
v -0.3 0.2 0.8
v -0.3 0.3 0.8
v -0.2 0.1 0.8
v -0.2 0.2 0.8
v 0.2 0.1 0.8
v 0.2 0.2 0.8
v 0.3 0.2 0.8
v 0.3 0.3 0.8
v -0.4 0.1 0.7
v -0.4 0.3 0.7
v -0.4 0.4 0.7
v -0.3 0.1 0.7
v -0.3 0.2 0.7
v -0.3 0.3 0.7
v -0.3 0.4 0.7
v -0.3 0.5 0.7
v -0.2 0.1 0.7
v -0.2 0.2 0.7
v -0.2 0.3 0.7
v -0.2 0.4 0.7
v 0.2 0.1 0.7
v 0.2 0.2 0.7
v 0.2 0.3 0.7
v 0.2 0.4 0.7
v 0.3 0.1 0.7
v 0.3 0.2 0.7
v 0.3 0.3 0.7
v 0.3 0.4 0.7
v 0.3 0.5 0.7
v 0.4 0.1 0.7
v 0.4 0.3 0.7
v 0.4 0.4 0.7
v -0.4 0 0.6
v -0.4 0.1 0.6
v -0.3 0 0.6
v -0.3 0.1 0.6
v 0.3 0 0.6
v 0.3 0.1 0.6
v 0.4 0 0.6
v 0.4 0.1 0.6
v -0.2 0.5 0.4
v -0.2 0.6 0.4
v 0.2 0.5 0.4
v 0.2 0.6 0.4
v -0.4 0.4 0.3
v -0.4 0.8 0.3
v -0.3 0.4 0.3
v -0.3 0.5 0.3
v -0.3 0.7 0.3
v -0.3 0.8 0.3
v -0.3 0.9 0.3
v -0.2 0.5 0.3
v -0.2 0.6 0.3
v -0.2 0.7 0.3
v -0.2 0.8 0.3
v 0.2 0.5 0.3
v 0.2 0.6 0.3
v 0.2 0.7 0.3
v 0.2 0.8 0.3
v 0.3 0.4 0.3
v 0.3 0.5 0.3
v 0.3 0.7 0.3
v 0.3 0.8 0.3
v 0.3 0.9 0.3
v 0.4 0.4 0.3
v 0.4 0.8 0.3
v -0.3 0.9 0.2
v -0.3 1 0.2
v -0.2 0.9 0.2
v -0.2 1 0.2
v 0.2 0.9 0.2
v 0.2 1 0.2
v 0.3 0.9 0.2
v 0.3 1 0.2
v -0.4 0 -0.3
v -0.4 0.1 -0.3
v -0.3 0 -0.3
v -0.3 0.1 -0.3
v 0.3 0 -0.3
v 0.3 0.1 -0.3
v 0.4 0 -0.3
v 0.4 0.1 -0.3
v -0.2 0.9 -0.4
v -0.2 1 -0.4
v 0.2 0.9 -0.4
v 0.2 1 -0.4
v -0.3 0.2 -0.6
v -0.3 0.3 -0.6
v -0.3 0.8 -0.6
v 0.3 0.2 -0.6
v 0.3 0.3 -0.6
v 0.3 0.8 -0.6
v -0.3 0.2 0.7
v -0.3 0.3 0.7
v -0.2 0.3 0.7
v 0.2 0.3 0.7
v 0.3 0.2 0.7
v 0.3 0.3 0.7
v -0.3 0.3 0.6
v -0.3 0.4 0.6
v -0.2 0.3 0.6
v -0.2 0.4 0.6
v 0.2 0.3 0.6
v 0.2 0.4 0.6
v 0.3 0.3 0.6
v 0.3 0.4 0.6
v -0.4 0 0.3
v -0.4 0.1 0.3
v -0.3 0 0.3
v -0.3 0.1 0.3
v -0.3 0.4 0.3
v -0.3 0.5 0.3
v -0.2 0.4 0.3
v -0.2 0.5 0.3
v 0.2 0.4 0.3
v 0.2 0.5 0.3
v 0.3 0 0.3
v 0.3 0.1 0.3
v 0.3 0.4 0.3
v 0.3 0.5 0.3
v 0.4 0 0.3
v 0.4 0.1 0.3
v -0.3 0.5 0.2
v -0.3 0.6 0.2
v -0.3 0.7 0.2
v -0.3 0.8 0.2
v -0.2 0.7 0.2
v -0.2 0.8 0.2
v 0.2 0.7 0.2
v 0.2 0.8 0.2
v 0.3 0.5 0.2
v 0.3 0.6 0.2
v 0.3 0.7 0.2
v 0.3 0.8 0.2
v -0.3 0.9 -0.5
v -0.3 1 -0.5
v 0.3 0.9 -0.5
v 0.3 1 -0.5
v -0.4 0 -0.6
v -0.4 0.1 -0.6
v -0.4 0.3 -0.6
v -0.4 0.8 -0.6
v -0.3 0 -0.6
v -0.3 0.1 -0.6
v -0.3 0.3 -0.6
v -0.3 0.8 -0.6
v -0.3 0.9 -0.6
v 0.3 0 -0.6
v 0.3 0.1 -0.6
v 0.3 0.3 -0.6
v 0.3 0.8 -0.6
v 0.3 0.9 -0.6
v 0.4 0 -0.6
v 0.4 0.1 -0.6
v 0.4 0.3 -0.6
v 0.4 0.8 -0.6
v -0.4 0.1 -0.7
v -0.4 0.2 -0.7
v -0.4 0.3 -0.7
v -0.3 0.2 -0.7
v -0.3 0.3 -0.7
v -0.3 0.8 -0.7
v -0.2 0.2 -0.7
v -0.2 0.3 -0.7
v -0.2 0.4 -0.7
v -0.2 0.6 -0.7
v -0.1 0.3 -0.7
v -0.1 0.4 -0.7
v -0.1 0.6 -0.7
v -0.1 0.7 -0.7
v 0.1 0.3 -0.7
v 0.1 0.4 -0.7
v 0.1 0.6 -0.7
v 0.1 0.7 -0.7
v 0.2 0.2 -0.7
v 0.2 0.3 -0.7
v 0.2 0.4 -0.7
v 0.2 0.6 -0.7
v 0.3 0.2 -0.7
v 0.3 0.3 -0.7
v 0.3 0.8 -0.7
v 0.4 0.1 -0.7
v 0.4 0.2 -0.7
v 0.4 0.3 -0.7
v -0.3 0.2 -0.8
v -0.3 0.3 -0.8
v -0.2 0.2 -0.8
v -0.2 0.3 -0.8
v -0.2 0.4 -0.8
v -0.2 0.6 -0.8
v -0.1 0.3 -0.8
v -0.1 0.4 -0.8
v -0.1 0.6 -0.8
v -0.1 0.7 -0.8
v 0.1 0.3 -0.8
v 0.1 0.4 -0.8
v 0.1 0.6 -0.8
v 0.1 0.7 -0.8
v 0.2 0.2 -0.8
v 0.2 0.3 -0.8
v 0.2 0.4 -0.8
v 0.2 0.6 -0.8
v 0.3 0.2 -0.8
v 0.3 0.3 -0.8
v -0.4 0 0.6
v -0.3 0 0.6
v 0.3 0 0.6
v 0.4 0 0.6
v -0.4 0 0.3
v -0.3 0 0.3
v 0.3 0 0.3
v 0.4 0 0.3
v -0.4 0 -0.3
v -0.3 0 -0.3
v 0.3 0 -0.3
v 0.4 0 -0.3
v -0.4 0 -0.6
v -0.3 0 -0.6
v 0.3 0 -0.6
v 0.4 0 -0.6
v -0.2 0.1 0.8
v 0.2 0.1 0.8
v -0.4 0.1 0.7
v -0.3 0.1 0.7
v -0.2 0.1 0.7
v 0.2 0.1 0.7
v 0.3 0.1 0.7
v 0.4 0.1 0.7
v -0.4 0.1 0.6
v -0.3 0.1 0.6
v 0.3 0.1 0.6
v 0.4 0.1 0.6
v -0.4 0.1 0.3
v -0.3 0.1 0.3
v 0.3 0.1 0.3
v 0.4 0.1 0.3
v -0.4 0.1 -0.3
v -0.3 0.1 -0.3
v 0.3 0.1 -0.3
v 0.4 0.1 -0.3
v -0.4 0.1 -0.6
v -0.3 0.1 -0.6
v 0.3 0.1 -0.6
v 0.4 0.1 -0.6
v -0.4 0.1 -0.7
v 0.4 0.1 -0.7
v -0.3 0.2 0.8
v -0.2 0.2 0.8
v 0.2 0.2 0.8
v 0.3 0.2 0.8
v -0.3 0.2 0.7
v -0.2 0.2 0.7
v 0.2 0.2 0.7
v 0.3 0.2 0.7
v -0.3 0.2 -0.7
v -0.2 0.2 -0.7
v 0.2 0.2 -0.7
v 0.3 0.2 -0.7
v -0.3 0.2 -0.8
v -0.2 0.2 -0.8
v 0.2 0.2 -0.8
v 0.3 0.2 -0.8
v -0.3 0.3 0.7
v -0.2 0.3 0.7
v 0.2 0.3 0.7
v 0.3 0.3 0.7
v -0.3 0.3 0.6
v -0.2 0.3 0.6
v 0.2 0.3 0.6
v 0.3 0.3 0.6
v -0.3 0.4 0.6
v -0.2 0.4 0.6
v 0.2 0.4 0.6
v 0.3 0.4 0.6
v -0.2 0.4 0.4
v 0.2 0.4 0.4
v -0.3 0.4 0.3
v -0.2 0.4 0.3
v 0.2 0.4 0.3
v 0.3 0.4 0.3
v -0.2 0.4 -0.7
v -0.1 0.4 -0.7
v 0.1 0.4 -0.7
v 0.2 0.4 -0.7
v -0.2 0.4 -0.8
v -0.1 0.4 -0.8
v 0.1 0.4 -0.8
v 0.2 0.4 -0.8
v -0.3 0.5 0.3
v -0.2 0.5 0.3
v 0.2 0.5 0.3
v 0.3 0.5 0.3
v -0.3 0.5 0.2
v 0.3 0.5 0.2
v -0.3 0.8 0.2
v -0.2 0.8 0.2
v 0.2 0.8 0.2
v 0.3 0.8 0.2
v -0.2 0.8 -0.4
v 0.2 0.8 -0.4
v -0.3 0.8 -0.6
v 0.3 0.8 -0.6
v -0.3 0.2 0.7
v 0.3 0.2 0.7
v -0.3 0.2 0.6
v 0.3 0.2 0.6
v -0.3 0.2 0.3
v 0.3 0.2 0.3
v -0.3 0.2 -0.3
v 0.3 0.2 -0.3
v -0.3 0.2 -0.6
v 0.3 0.2 -0.6
v -0.3 0.3 0.8
v 0.3 0.3 0.8
v -0.3 0.3 0.7
v -0.2 0.3 0.7
v 0.2 0.3 0.7
v 0.3 0.3 0.7
v -0.4 0.3 -0.6
v -0.3 0.3 -0.6
v 0.3 0.3 -0.6
v 0.4 0.3 -0.6
v -0.4 0.3 -0.7
v -0.3 0.3 -0.7
v -0.2 0.3 -0.7
v -0.1 0.3 -0.7
v 0.1 0.3 -0.7
v 0.2 0.3 -0.7
v 0.3 0.3 -0.7
v 0.4 0.3 -0.7
v -0.3 0.3 -0.8
v -0.2 0.3 -0.8
v -0.1 0.3 -0.8
v 0.1 0.3 -0.8
v 0.2 0.3 -0.8
v 0.3 0.3 -0.8
v -0.4 0.4 0.7
v -0.3 0.4 0.7
v 0.3 0.4 0.7
v 0.4 0.4 0.7
v -0.4 0.4 0.6
v -0.3 0.4 0.6
v 0.3 0.4 0.6
v 0.4 0.4 0.6
v -0.4 0.4 0.3
v -0.3 0.4 0.3
v 0.3 0.4 0.3
v 0.4 0.4 0.3
v -0.3 0.5 0.7
v 0.3 0.5 0.7
v -0.2 0.5 0.4
v 0.2 0.5 0.4
v -0.3 0.5 0.3
v -0.2 0.5 0.3
v 0.2 0.5 0.3
v 0.3 0.5 0.3
v -0.2 0.6 0.4
v 0.2 0.6 0.4
v -0.2 0.6 0.3
v 0.2 0.6 0.3
v -0.2 0.6 -0.7
v -0.1 0.6 -0.7
v 0.1 0.6 -0.7
v 0.2 0.6 -0.7
v -0.2 0.6 -0.8
v -0.1 0.6 -0.8
v 0.1 0.6 -0.8
v 0.2 0.6 -0.8
v -0.1 0.7 -0.7
v 0.1 0.7 -0.7
v -0.1 0.7 -0.8
v 0.1 0.7 -0.8
v -0.4 0.8 0.3
v -0.3 0.8 0.3
v 0.3 0.8 0.3
v 0.4 0.8 0.3
v -0.4 0.8 -0.6
v -0.3 0.8 -0.6
v 0.3 0.8 -0.6
v 0.4 0.8 -0.6
v -0.3 0.8 -0.7
v 0.3 0.8 -0.7
v -0.3 0.9 0.3
v 0.3 0.9 0.3
v -0.3 0.9 0.2
v -0.2 0.9 0.2
v 0.2 0.9 0.2
v 0.3 0.9 0.2
v -0.2 0.9 -0.4
v 0.2 0.9 -0.4
v -0.3 0.9 -0.5
v 0.3 0.9 -0.5
v -0.3 0.9 -0.6
v 0.3 0.9 -0.6
v -0.3 1 0.2
v -0.2 1 0.2
v 0.2 1 0.2
v 0.3 1 0.2
v -0.2 1 -0.4
v 0.2 1 -0.4
v -0.3 1 -0.5
v 0.3 1 -0.5

# faces
f 6/8/1 2/8/1 1/8/1
f 7/8/1 2/8/1 6/8/1
f 8/8/1 2/8/1 7/8/1
f 9/8/1 2/8/1 8/8/1
f 10/8/1 4/8/1 3/8/1
f 11/8/1 4/8/1 10/8/1
f 12/8/1 4/8/1 11/8/1
f 13/8/1 4/8/1 12/8/1
f 15/8/1 7/8/1 6/8/1
f 15/3/1 8/3/1 7/3/1
f 16/8/1 9/8/1 8/8/1
f 16/3/1 8/3/1 15/3/1
f 17/4/1 10/4/1 9/4/1
f 17/8/1 9/8/1 16/8/1
f 18/8/1 11/8/1 10/8/1
f 18/4/1 10/4/1 17/4/1
f 19/3/1 12/3/1 11/3/1
f 19/8/1 11/8/1 18/8/1
f 20/8/1 13/8/1 12/8/1
f 20/3/1 12/3/1 19/3/1
f 21/4/1 14/4/1 13/4/1
f 21/8/1 13/8/1 20/8/1
f 22/4/1 14/4/1 21/4/1
f 23/1/1 6/1/1 5/1/1
f 24/8/1 15/8/1 6/8/1
f 24/1/1 6/1/1 23/1/1
f 24/8/1 16/8/1 15/8/1
f 24/8/1 17/8/1 16/8/1
f 25/1/1 18/1/1 17/1/1
f 25/8/1 17/8/1 24/8/1
f 26/8/1 20/8/1 19/8/1
f 26/1/1 18/1/1 25/1/1
f 26/8/1 19/8/1 18/8/1
f 26/8/1 21/8/1 20/8/1
f 27/1/1 22/1/1 21/1/1
f 27/8/1 21/8/1 26/8/1
f 28/1/1 22/1/1 27/1/1
f 29/3/1 24/3/1 23/3/1
f 30/1/1 25/1/1 24/1/1
f 30/3/1 24/3/1 29/3/1
f 30/1/1 26/1/1 25/1/1
f 30/1/1 27/1/1 26/1/1
f 31/1/1 27/1/1 30/1/1
f 32/1/1 27/1/1 31/1/1
f 33/1/1 27/1/1 32/1/1
f 34/1/1 27/1/1 33/1/1
f 35/1/1 27/1/1 34/1/1
f 36/1/1 32/1/1 31/1/1
f 36/3/1 33/3/1 32/3/1
f 37/3/1 33/3/1 36/3/1
f 38/1/1 37/1/1 36/1/1
f 38/3/1 33/3/1 37/3/1
f 39/1/1 34/1/1 33/1/1
f 39/3/1 33/3/1 38/3/1
f 40/3/1 35/3/1 34/3/1
f 40/1/1 34/1/1 39/1/1
f 41/1/1 27/1/1 35/1/1
f 41/3/1 35/3/1 40/3/1
f 42/1/1 40/1/1 39/1/1
f 42/1/1 39/1/1 38/1/1
f 42/1/1 41/1/1 40/1/1
f 42/1/1 36/1/1 31/1/1
f 42/1/1 38/1/1 36/1/1
f 43/1/1 27/1/1 41/1/1
f 43/1/1 41/1/1 42/1/1
f 48/6/1 45/6/1 44/6/1
f 49/6/1 45/6/1 48/6/1
f 51/2/1 47/2/1 46/2/1
f 52/2/1 47/2/1 51/2/1
f 56/1/1 54/1/1 53/1/1
f 56/1/1 55/1/1 54/1/1
f 57/1/1 55/1/1 56/1/1
f 59/1/1 51/1/1 50/1/1
f 60/1/1 51/1/1 59/1/1
f 61/1/1 59/1/1 58/1/1
f 62/1/1 59/1/1 61/1/1
f 63/1/1 59/1/1 62/1/1
f 64/1/1 59/1/1 63/1/1
f 65/7/1 63/7/1 62/7/1
f 66/7/1 63/7/1 65/7/1
f 69/6/1 68/6/1 67/6/1
f 70/6/1 68/6/1 69/6/1
f 75/3/1 74/3/1 73/3/1
f 76/3/1 74/3/1 75/3/1
f 77/8/1 72/8/1 71/8/1
f 78/8/1 72/8/1 77/8/1
f 81/8/1 80/8/1 79/8/1
f 82/8/1 80/8/1 81/8/1
f 85/8/1 84/8/1 83/8/1
f 86/8/1 84/8/1 85/8/1
f 89/7/1 88/7/1 87/7/1
f 90/7/1 88/7/1 89/7/1
f 95/8/1 92/8/1 91/8/1
f 96/8/1 92/8/1 95/8/1
f 97/8/1 94/8/1 93/8/1
f 98/8/1 94/8/1 97/8/1
f 104/1/1 100/1/1 99/1/1
f 105/8/1 101/8/1 100/8/1
f 105/1/1 100/1/1 104/1/1
f 106/1/1 102/1/1 101/1/1
f 106/8/1 101/8/1 105/8/1
f 107/8/1 103/8/1 102/8/1
f 107/1/1 102/1/1 106/1/1
f 108/8/1 103/8/1 107/8/1
f 109/1/1 106/1/1 105/1/1
f 109/1/1 108/1/1 107/1/1
f 109/1/1 107/1/1 106/1/1
f 110/1/1 108/1/1 109/1/1
f 111/1/1 108/1/1 110/1/1
f 112/1/1 108/1/1 111/1/1
f 113/1/1 108/1/1 112/1/1
f 114/1/1 108/1/1 113/1/1
f 115/1/1 111/1/1 110/1/1
f 116/3/1 112/3/1 111/3/1
f 116/1/1 111/1/1 115/1/1
f 117/3/1 112/3/1 116/3/1
f 118/3/1 112/3/1 117/3/1
f 119/1/1 118/1/1 117/1/1
f 120/3/1 112/3/1 118/3/1
f 120/1/1 118/1/1 119/1/1
f 121/1/1 113/1/1 112/1/1
f 121/3/1 112/3/1 120/3/1
f 122/3/1 114/3/1 113/3/1
f 122/1/1 113/1/1 121/1/1
f 123/1/1 108/1/1 114/1/1
f 123/3/1 114/3/1 122/3/1
f 124/1/1 122/1/1 121/1/1
f 124/1/1 121/1/1 120/1/1
f 124/1/1 123/1/1 122/1/1
f 124/1/1 120/1/1 119/1/1
f 125/1/1 108/1/1 123/1/1
f 125/1/1 123/1/1 124/1/1
f 126/8/2 127/8/2 130/8/2
f 130/8/2 127/8/2 131/8/2
f 128/8/2 129/8/2 132/8/2
f 132/8/2 129/8/2 133/8/2
f 134/1/2 135/1/2 139/1/2
f 135/8/2 136/8/2 140/8/2
f 139/1/2 135/1/2 140/1/2
f 136/1/2 137/1/2 141/1/2
f 140/8/2 136/8/2 141/8/2
f 137/8/2 138/8/2 142/8/2
f 141/1/2 137/1/2 142/1/2
f 142/8/2 138/8/2 143/8/2
f 140/1/2 141/1/2 144/1/2
f 142/1/2 143/1/2 144/1/2
f 141/1/2 142/1/2 144/1/2
f 144/1/2 143/1/2 145/1/2
f 145/1/2 143/1/2 146/1/2
f 146/1/2 143/1/2 147/1/2
f 147/1/2 143/1/2 148/1/2
f 148/1/2 143/1/2 149/1/2
f 145/1/2 146/1/2 150/1/2
f 146/3/2 147/3/2 151/3/2
f 150/1/2 146/1/2 151/1/2
f 151/3/2 147/3/2 152/3/2
f 152/3/2 147/3/2 153/3/2
f 152/1/2 153/1/2 154/1/2
f 153/3/2 147/3/2 155/3/2
f 154/1/2 153/1/2 155/1/2
f 147/1/2 148/1/2 156/1/2
f 155/3/2 147/3/2 156/3/2
f 148/3/2 149/3/2 157/3/2
f 156/1/2 148/1/2 157/1/2
f 149/1/2 143/1/2 158/1/2
f 157/3/2 149/3/2 158/3/2
f 156/1/2 157/1/2 159/1/2
f 155/1/2 156/1/2 159/1/2
f 157/1/2 158/1/2 159/1/2
f 154/1/2 155/1/2 159/1/2
f 158/1/2 143/1/2 160/1/2
f 159/1/2 158/1/2 160/1/2
f 161/7/2 162/7/2 163/7/2
f 163/7/2 162/7/2 164/7/2
f 165/8/2 166/8/2 167/8/2
f 167/8/2 166/8/2 168/8/2
f 169/8/2 170/8/2 171/8/2
f 171/8/2 170/8/2 172/8/2
f 173/6/2 174/6/2 175/6/2
f 175/6/2 174/6/2 176/6/2
f 179/3/2 180/3/2 181/3/2
f 181/3/2 180/3/2 182/3/2
f 177/8/2 178/8/2 183/8/2
f 183/8/2 178/8/2 184/8/2
f 185/6/2 186/6/2 189/6/2
f 189/6/2 186/6/2 190/6/2
f 187/2/2 188/2/2 192/2/2
f 192/2/2 188/2/2 193/2/2
f 194/1/2 195/1/2 197/1/2
f 195/1/2 196/1/2 197/1/2
f 197/1/2 196/1/2 198/1/2
f 191/1/2 192/1/2 200/1/2
f 200/1/2 192/1/2 201/1/2
f 199/1/2 200/1/2 202/1/2
f 202/1/2 200/1/2 203/1/2
f 203/1/2 200/1/2 204/1/2
f 204/1/2 200/1/2 205/1/2
f 203/7/2 204/7/2 206/7/2
f 206/7/2 204/7/2 207/7/2
f 208/8/2 209/8/2 213/8/2
f 213/8/2 209/8/2 214/8/2
f 214/8/2 209/8/2 215/8/2
f 215/8/2 209/8/2 216/8/2
f 210/8/2 211/8/2 217/8/2
f 217/8/2 211/8/2 218/8/2
f 218/8/2 211/8/2 219/8/2
f 219/8/2 211/8/2 220/8/2
f 213/8/2 214/8/2 222/8/2
f 214/3/2 215/3/2 222/3/2
f 215/8/2 216/8/2 223/8/2
f 222/3/2 215/3/2 223/3/2
f 216/4/2 217/4/2 224/4/2
f 223/8/2 216/8/2 224/8/2
f 217/8/2 218/8/2 225/8/2
f 224/4/2 217/4/2 225/4/2
f 218/3/2 219/3/2 226/3/2
f 225/8/2 218/8/2 226/8/2
f 219/8/2 220/8/2 227/8/2
f 226/3/2 219/3/2 227/3/2
f 220/4/2 221/4/2 228/4/2
f 227/8/2 220/8/2 228/8/2
f 228/4/2 221/4/2 229/4/2
f 212/1/2 213/1/2 230/1/2
f 213/8/2 222/8/2 231/8/2
f 230/1/2 213/1/2 231/1/2
f 222/8/2 223/8/2 231/8/2
f 223/8/2 224/8/2 231/8/2
f 224/1/2 225/1/2 232/1/2
f 231/8/2 224/8/2 232/8/2
f 226/8/2 227/8/2 233/8/2
f 232/1/2 225/1/2 233/1/2
f 225/8/2 226/8/2 233/8/2
f 227/8/2 228/8/2 233/8/2
f 228/1/2 229/1/2 234/1/2
f 233/8/2 228/8/2 234/8/2
f 234/1/2 229/1/2 235/1/2
f 230/3/2 231/3/2 236/3/2
f 231/1/2 232/1/2 237/1/2
f 236/3/2 231/3/2 237/3/2
f 232/1/2 233/1/2 237/1/2
f 233/1/2 234/1/2 237/1/2
f 237/1/2 234/1/2 238/1/2
f 238/1/2 234/1/2 239/1/2
f 239/1/2 234/1/2 240/1/2
f 240/1/2 234/1/2 241/1/2
f 241/1/2 234/1/2 242/1/2
f 238/1/2 239/1/2 243/1/2
f 239/3/2 240/3/2 243/3/2
f 243/3/2 240/3/2 244/3/2
f 243/1/2 244/1/2 245/1/2
f 244/3/2 240/3/2 245/3/2
f 240/1/2 241/1/2 246/1/2
f 245/3/2 240/3/2 246/3/2
f 241/3/2 242/3/2 247/3/2
f 246/1/2 241/1/2 247/1/2
f 242/1/2 234/1/2 248/1/2
f 247/3/2 242/3/2 248/3/2
f 246/1/2 247/1/2 249/1/2
f 245/1/2 246/1/2 249/1/2
f 247/1/2 248/1/2 249/1/2
f 238/1/2 243/1/2 249/1/2
f 243/1/2 245/1/2 249/1/2
f 248/1/2 234/1/2 250/1/2
f 249/1/2 248/1/2 250/1/2
f 254/6/3 252/6/3 251/6/3
f 255/6/3 254/6/3 253/6/3
f 256/6/3 252/6/3 254/6/3
f 256/6/3 254/6/3 255/6/3
f 257/6/3 252/6/3 256/6/3
f 258/6/3 252/6/3 257/6/3
f 262/1/3 260/1/3 259/1/3
f 263/1/3 260/1/3 262/1/3
f 264/3/3 261/3/3 260/3/3
f 264/1/3 260/1/3 263/1/3
f 265/3/3 261/3/3 264/3/3
f 267/6/3 263/6/3 262/6/3
f 268/6/3 263/6/3 267/6/3
f 269/3/3 265/3/3 264/3/3
f 270/1/3 266/1/3 265/1/3
f 270/3/3 265/3/3 269/3/3
f 273/1/3 270/1/3 269/1/3
f 274/1/3 266/1/3 270/1/3
f 274/1/3 270/1/3 273/1/3
f 275/6/3 272/6/3 271/6/3
f 276/6/3 272/6/3 275/6/3
f 277/3/3 274/3/3 273/3/3
f 278/1/3 266/1/3 274/1/3
f 278/3/3 274/3/3 277/3/3
f 279/1/3 266/1/3 278/1/3
f 280/1/3 277/1/3 276/1/3
f 280/1/3 276/1/3 275/1/3
f 281/3/3 278/3/3 277/3/3
f 281/1/3 277/1/3 280/1/3
f 282/3/3 278/3/3 281/3/3
f 285/8/3 284/8/3 283/8/3
f 286/8/3 284/8/3 285/8/3
f 289/8/3 288/8/3 287/8/3
f 290/8/3 288/8/3 289/8/3
f 293/3/3 292/3/3 291/3/3
f 294/3/3 292/3/3 293/3/3
f 297/1/3 296/1/3 295/1/3
f 298/1/3 296/1/3 297/1/3
f 299/1/3 296/1/3 298/1/3
f 300/1/3 296/1/3 299/1/3
f 302/3/3 299/3/3 298/3/3
f 303/3/3 299/3/3 302/3/3
f 304/1/3 301/1/3 300/1/3
f 304/3/3 299/3/3 303/3/3
f 304/1/3 300/1/3 299/1/3
f 305/1/3 301/1/3 304/1/3
f 307/3/3 304/3/3 303/3/3
f 307/3/3 305/3/3 304/3/3
f 308/3/3 305/3/3 307/3/3
f 309/1/3 301/1/3 305/1/3
f 309/3/3 305/3/3 308/3/3
f 311/3/3 308/3/3 307/3/3
f 311/3/3 307/3/3 306/3/3
f 312/1/3 309/1/3 308/1/3
f 312/3/3 308/3/3 311/3/3
f 313/1/3 301/1/3 309/1/3
f 313/1/3 309/1/3 312/1/3
f 314/1/3 301/1/3 313/1/3
f 315/1/3 312/1/3 311/1/3
f 315/1/3 311/1/3 310/1/3
f 315/1/3 313/1/3 312/1/3
f 316/1/3 313/1/3 315/1/3
f 319/7/3 318/7/3 317/7/3
f 320/7/3 318/7/3 319/7/3
f 323/7/3 322/7/3 321/7/3
f 324/7/3 322/7/3 323/7/3
f 327/8/3 326/8/3 325/8/3
f 328/8/3 326/8/3 327/8/3
f 331/8/3 330/8/3 329/8/3
f 332/8/3 330/8/3 331/8/3
f 335/7/3 334/7/3 333/7/3
f 336/7/3 334/7/3 335/7/3
f 340/1/3 338/1/3 337/1/3
f 340/1/3 339/1/3 338/1/3
f 341/1/3 339/1/3 340/1/3
f 342/1/3 339/1/3 341/1/3
f 343/6/4 344/6/4 345/6/4
f 343/6/4 345/6/4 346/6/4
f 343/6/4 346/6/4 347/6/4
f 347/6/4 346/6/4 348/6/4
f 349/3/4 350/3/4 351/3/4
f 351/3/4 350/3/4 352/3/4
f 351/1/4 352/1/4 353/1/4
f 353/1/4 352/1/4 354/1/4
f 353/3/4 354/3/4 355/3/4
f 355/3/4 354/3/4 356/3/4
f 357/8/4 358/8/4 359/8/4
f 359/8/4 358/8/4 360/8/4
f 361/1/4 362/1/4 363/1/4
f 363/1/4 362/1/4 364/1/4
f 363/3/4 364/3/4 365/3/4
f 365/3/4 364/3/4 366/3/4
f 365/1/4 366/1/4 369/1/4
f 369/1/4 366/1/4 370/1/4
f 367/8/4 368/8/4 371/8/4
f 371/8/4 368/8/4 372/8/4
f 373/3/4 374/3/4 377/3/4
f 375/1/4 376/1/4 377/1/4
f 374/3/4 375/3/4 377/3/4
f 377/1/4 376/1/4 378/1/4
f 373/3/4 377/3/4 379/3/4
f 377/3/4 378/3/4 379/3/4
f 379/3/4 378/3/4 380/3/4
f 373/3/4 379/3/4 381/3/4
f 381/3/4 379/3/4 382/3/4
f 379/1/4 380/1/4 383/1/4
f 382/3/4 379/3/4 383/3/4
f 383/1/4 380/1/4 384/1/4
f 385/7/4 386/7/4 387/7/4
f 387/7/4 386/7/4 388/7/4
f 389/8/4 390/8/4 393/8/4
f 393/8/4 390/8/4 394/8/4
f 391/1/4 392/1/4 395/1/4
f 395/1/4 392/1/4 396/1/4
f 396/1/4 397/1/4 401/1/4
f 401/1/4 397/1/4 402/1/4
f 398/8/4 399/8/4 403/8/4
f 403/8/4 399/8/4 404/8/4
f 400/1/4 401/1/4 405/1/4
f 405/1/4 401/1/4 406/1/4
f 407/4/4 408/4/4 410/4/4
f 408/1/4 409/1/4 410/1/4
f 410/1/4 409/1/4 411/1/4
f 407/4/4 410/4/4 413/4/4
f 411/1/4 412/1/4 414/1/4
f 414/1/4 412/1/4 415/1/4
f 415/1/4 412/1/4 416/1/4
f 414/1/4 415/1/4 417/1/4
f 417/1/4 415/1/4 418/1/4
f 416/1/4 412/1/4 419/1/4
f 419/1/4 412/1/4 420/1/4
f 420/1/4 412/1/4 424/1/4
f 407/4/4 413/4/4 425/4/4
f 421/1/4 422/1/4 426/1/4
f 426/1/4 422/1/4 427/1/4
f 423/1/4 424/1/4 428/1/4
f 407/4/4 425/4/4 429/4/4
f 426/1/4 427/1/4 430/1/4
f 427/1/4 428/1/4 430/1/4
f 428/1/4 424/1/4 431/1/4
f 424/1/4 412/1/4 431/1/4
f 430/1/4 428/1/4 431/1/4
f 407/4/4 429/4/4 432/4/4
f 429/1/4 430/1/4 433/1/4
f 432/4/4 429/4/4 433/4/4
f 433/1/4 430/1/4 434/1/4
f 435/2/4 436/2/4 437/2/4
f 437/2/4 436/2/4 438/2/4
f 437/4/4 438/4/4 441/4/4
f 439/8/4 440/8/4 442/8/4
f 442/8/4 440/8/4 443/8/4
f 437/4/4 441/4/4 445/4/4
f 441/8/4 442/8/4 445/8/4
f 442/3/4 443/3/4 446/3/4
f 445/8/4 442/8/4 446/8/4
f 443/8/4 444/8/4 447/8/4
f 446/3/4 443/3/4 447/3/4
f 447/8/4 444/8/4 448/8/4
f 437/4/4 445/4/4 449/4/4
f 449/4/4 445/4/4 450/4/4
f 446/8/4 447/8/4 451/8/4
f 451/8/4 447/8/4 452/8/4
f 449/2/4 450/2/4 453/2/4
f 453/2/4 450/2/4 454/2/4
f 459/8/5 456/8/5 455/8/5
f 460/8/5 456/8/5 459/8/5
f 461/8/5 458/8/5 457/8/5
f 462/8/5 458/8/5 461/8/5
f 467/8/5 464/8/5 463/8/5
f 468/8/5 464/8/5 467/8/5
f 469/8/5 466/8/5 465/8/5
f 470/8/5 466/8/5 469/8/5
f 475/6/5 472/6/5 471/6/5
f 476/6/5 472/6/5 475/6/5
f 479/1/5 474/1/5 473/1/5
f 480/6/5 475/6/5 474/6/5
f 480/1/5 474/1/5 479/1/5
f 480/6/5 476/6/5 475/6/5
f 480/6/5 477/6/5 476/6/5
f 481/1/5 478/1/5 477/1/5
f 481/6/5 477/6/5 480/6/5
f 482/1/5 478/1/5 481/1/5
f 484/6/5 481/6/5 480/6/5
f 485/6/5 481/6/5 484/6/5
f 487/4/5 484/4/5 483/4/5
f 488/6/5 485/6/5 484/6/5
f 488/4/5 484/4/5 487/4/5
f 489/4/5 486/4/5 485/4/5
f 489/6/5 485/6/5 488/6/5
f 490/4/5 486/4/5 489/4/5
f 492/6/5 489/6/5 488/6/5
f 493/6/5 489/6/5 492/6/5
f 495/4/5 492/4/5 491/4/5
f 495/4/5 494/4/5 493/4/5
f 495/4/5 493/4/5 492/4/5
f 496/4/5 494/4/5 495/4/5
f 501/6/5 498/6/5 497/6/5
f 502/6/5 498/6/5 501/6/5
f 503/6/5 500/6/5 499/6/5
f 504/6/5 500/6/5 503/6/5
f 509/2/5 506/2/5 505/2/5
f 510/4/5 507/4/5 506/4/5
f 510/2/5 506/2/5 509/2/5
f 511/2/5 508/2/5 507/2/5
f 511/4/5 507/4/5 510/4/5
f 512/2/5 508/2/5 511/2/5
f 517/3/5 514/3/5 513/3/5
f 518/1/5 515/1/5 514/1/5
f 518/3/5 514/3/5 517/3/5
f 519/3/5 516/3/5 515/3/5
f 519/1/5 515/1/5 518/1/5
f 520/3/5 516/3/5 519/3/5
f 525/1/5 522/1/5 521/1/5
f 525/1/5 524/1/5 523/1/5
f 525/1/5 523/1/5 522/1/5
f 526/1/5 524/1/5 525/1/5
f 527/1/5 525/1/5 521/1/5
f 528/3/5 526/3/5 525/3/5
f 528/1/5 525/1/5 527/1/5
f 529/1/5 524/1/5 526/1/5
f 529/3/5 526/3/5 528/3/5
f 530/1/5 524/1/5 529/1/5
f 535/8/5 532/8/5 531/8/5
f 536/8/5 532/8/5 535/8/5
f 537/8/5 534/8/5 533/8/5
f 538/8/5 534/8/5 537/8/5
f 543/3/5 540/3/5 539/3/5
f 543/3/5 542/3/5 541/3/5
f 543/3/5 541/3/5 540/3/5
f 544/3/5 542/3/5 543/3/5
f 549/1/5 546/1/5 545/1/5
f 549/5/5 547/5/5 546/5/5
f 550/1/5 548/1/5 547/1/5
f 550/5/5 547/5/5 549/5/5
f 551/1/5 549/1/5 545/1/5
f 551/1/5 550/1/5 549/1/5
f 552/1/5 548/1/5 550/1/5
f 552/1/5 550/1/5 551/1/5
f 553/6/6 554/6/6 555/6/6
f 555/6/6 554/6/6 556/6/6
f 555/6/6 556/6/6 557/6/6
f 557/6/6 556/6/6 558/6/6
f 557/6/6 558/6/6 559/6/6
f 559/6/6 558/6/6 560/6/6
f 559/6/6 560/6/6 561/6/6
f 561/6/6 560/6/6 562/6/6
f 563/6/6 564/6/6 565/6/6
f 565/6/6 564/6/6 566/6/6
f 566/6/6 564/6/6 567/6/6
f 567/6/6 564/6/6 568/6/6
f 569/1/6 570/1/6 573/1/6
f 573/1/6 570/1/6 574/1/6
f 571/1/6 572/1/6 579/1/6
f 579/1/6 572/1/6 580/1/6
f 574/2/6 575/2/6 581/2/6
f 575/4/6 576/4/6 582/4/6
f 581/2/6 575/2/6 582/2/6
f 582/4/6 576/4/6 583/4/6
f 577/4/6 578/4/6 584/4/6
f 578/2/6 579/2/6 585/2/6
f 584/4/6 578/4/6 585/4/6
f 585/2/6 579/2/6 586/2/6
f 587/3/6 588/3/6 591/3/6
f 591/3/6 588/3/6 592/3/6
f 589/3/6 590/3/6 593/3/6
f 593/3/6 590/3/6 594/3/6
f 591/1/6 592/1/6 595/1/6
f 595/1/6 592/1/6 596/1/6
f 593/1/6 594/1/6 597/1/6
f 597/1/6 594/1/6 598/1/6
f 599/1/6 600/1/6 601/1/6
f 601/1/6 600/1/6 602/1/6
f 599/1/6 601/1/6 603/1/6
f 603/1/6 601/1/6 604/1/6
f 602/1/6 600/1/6 605/1/6
f 605/1/6 600/1/6 606/1/6
f 607/3/6 608/3/6 609/3/6
f 609/3/6 608/3/6 610/3/6
f 611/8/6 612/8/6 615/8/6
f 615/8/6 612/8/6 616/8/6
f 613/8/6 614/8/6 617/8/6
f 617/8/6 614/8/6 618/8/6
f 619/8/6 620/8/6 621/8/6
f 621/8/6 620/8/6 622/8/6
f 623/1/6 624/1/6 627/1/6
f 627/1/6 624/1/6 628/1/6
f 625/1/6 626/1/6 629/1/6
f 629/1/6 626/1/6 630/1/6
f 628/1/6 629/1/6 631/1/6
f 631/1/6 629/1/6 632/1/6
f 633/1/6 634/1/6 635/1/6
f 635/1/6 634/1/6 636/1/6
f 636/1/6 634/1/6 637/1/6
f 637/1/6 634/1/6 638/1/6
f 636/5/6 637/5/6 639/5/6
f 639/5/6 637/5/6 640/5/6
f 641/1/6 642/1/6 643/1/6
f 643/1/6 642/1/6 644/1/6
f 645/7/6 646/7/6 649/7/6
f 647/7/6 648/7/6 650/7/6
f 645/7/6 649/7/6 651/7/6
f 649/7/6 650/7/6 651/7/6
f 650/7/6 648/7/6 652/7/6
f 651/7/6 650/7/6 652/7/6
