# MagicaVoxel @ Ephtracy

# group
o 

# material
mtllib Tree_01.mtl
usemtl palette

# normals
vn -1 0 0
vn 1 0 0
vn 0 0 1
vn 0 0 -1
vn 0 -1 0
vn 0 1 0

# texcoords
vt 0.369141 0.5
vt 0.373047 0.5
vt 0.892578 0.5
vt 0.896484 0.5

# verts
v -0.3 0.3 0.3
v -0.3 0.3 -0.3
v -0.3 0.4 0.3
v -0.3 0.4 -0.3
v -0.3 0.8 0.3
v -0.3 0.8 -0.3
v -0.3 0.9 0.3
v -0.3 0.9 -0.3
v -0.2 0 0.2
v -0.2 0 -0.2
v -0.2 0.3 0.2
v -0.2 0.3 -0.2
v 0.2 0 0.2
v 0.2 0 0.1
v 0.2 0 -0.2
v 0.2 0.3 0.2
v 0.2 0.3 0.1
v 0.2 0.3 -0.2
v 0.3 0.3 0.3
v 0.3 0.3 -0.3
v 0.3 0.4 0.3
v 0.3 0.4 -0.3
v 0.3 0.8 0.3
v 0.3 0.8 -0.3
v 0.3 0.9 0.3
v 0.3 0.9 -0.3
v -0.3 0.3 0.3
v -0.3 0.4 0.3
v -0.3 0.8 0.3
v -0.3 0.9 0.3
v 0.3 0.3 0.3
v 0.3 0.4 0.3
v 0.3 0.8 0.3
v 0.3 0.9 0.3
v -0.2 0 0.2
v -0.2 0.3 0.2
v -0.1 0.1 0.2
v -0.1 0.2 0.2
v 0.1 0.1 0.2
v 0.1 0.2 0.2
v 0.2 0 0.2
v 0.2 0.3 0.2
v -0.2 0 -0.2
v -0.2 0.3 -0.2
v -0.1 0 -0.2
v -0.1 0.3 -0.2
v 0.2 0 -0.2
v 0.2 0.3 -0.2
v -0.3 0.3 -0.3
v -0.3 0.4 -0.3
v -0.3 0.8 -0.3
v -0.3 0.9 -0.3
v 0.3 0.3 -0.3
v 0.3 0.4 -0.3
v 0.3 0.8 -0.3
v 0.3 0.9 -0.3
v -0.2 0 0.2
v 0.2 0 0.2
v -0.1 0 0.1
v 0.2 0 0.1
v -0.2 0 -0.2
v -0.1 0 -0.2
v 0.2 0 -0.2
v -0.3 0.3 0.3
v 0.3 0.3 0.3
v -0.2 0.3 0.2
v 0.2 0.3 0.2
v 0.2 0.3 0.1
v -0.2 0.3 -0.2
v -0.1 0.3 -0.2
v 0.2 0.3 -0.2
v -0.3 0.3 -0.3
v 0.3 0.3 -0.3
v -0.3 0.9 0.3
v 0.3 0.9 0.3
v -0.2 0.9 0.2
v 0.2 0.9 0.2
v -0.2 0.9 -0.2
v 0.2 0.9 -0.2
v -0.3 0.9 -0.3
v 0.3 0.9 -0.3

# faces
f 3/4/1 2/4/1 1/4/1
f 4/4/1 2/4/1 3/4/1
f 5/3/1 4/3/1 3/3/1
f 6/3/1 4/3/1 5/3/1
f 7/4/1 6/4/1 5/4/1
f 8/4/1 6/4/1 7/4/1
f 11/1/1 10/1/1 9/1/1
f 12/1/1 10/1/1 11/1/1
f 13/1/2 14/1/2 16/1/2
f 14/2/2 15/2/2 17/2/2
f 16/1/2 14/1/2 17/1/2
f 17/2/2 15/2/2 18/2/2
f 19/4/2 20/4/2 21/4/2
f 21/4/2 20/4/2 22/4/2
f 21/3/2 22/3/2 23/3/2
f 23/3/2 22/3/2 24/3/2
f 23/4/2 24/4/2 25/4/2
f 25/4/2 24/4/2 26/4/2
f 31/4/3 28/4/3 27/4/3
f 32/3/3 29/3/3 28/3/3
f 32/4/3 28/4/3 31/4/3
f 33/4/3 30/4/3 29/4/3
f 33/3/3 29/3/3 32/3/3
f 34/4/3 30/4/3 33/4/3
f 37/1/3 36/1/3 35/1/3
f 38/1/3 36/1/3 37/1/3
f 39/1/3 37/1/3 35/1/3
f 39/2/3 38/2/3 37/2/3
f 40/1/3 36/1/3 38/1/3
f 40/2/3 38/2/3 39/2/3
f 41/1/3 39/1/3 35/1/3
f 41/1/3 40/1/3 39/1/3
f 42/1/3 36/1/3 40/1/3
f 42/1/3 40/1/3 41/1/3
f 43/1/4 44/1/4 45/1/4
f 45/1/4 44/1/4 46/1/4
f 45/2/4 46/2/4 47/2/4
f 47/2/4 46/2/4 48/2/4
f 49/4/4 50/4/4 53/4/4
f 50/3/4 51/3/4 54/3/4
f 53/4/4 50/4/4 54/4/4
f 51/4/4 52/4/4 55/4/4
f 54/3/4 51/3/4 55/3/4
f 55/4/4 52/4/4 56/4/4
f 59/1/5 58/1/5 57/1/5
f 60/1/5 58/1/5 59/1/5
f 61/1/5 59/1/5 57/1/5
f 62/2/5 60/2/5 59/2/5
f 62/1/5 59/1/5 61/1/5
f 63/2/5 60/2/5 62/2/5
f 66/4/5 65/4/5 64/4/5
f 67/4/5 65/4/5 66/4/5
f 68/4/5 65/4/5 67/4/5
f 69/4/5 66/4/5 64/4/5
f 71/4/5 65/4/5 68/4/5
f 72/4/5 70/4/5 69/4/5
f 72/4/5 71/4/5 70/4/5
f 72/4/5 69/4/5 64/4/5
f 73/4/5 65/4/5 71/4/5
f 73/4/5 71/4/5 72/4/5
f 74/4/6 75/4/6 76/4/6
f 76/4/6 75/4/6 77/4/6
f 74/4/6 76/4/6 78/4/6
f 76/3/6 77/3/6 78/3/6
f 77/4/6 75/4/6 79/4/6
f 78/3/6 77/3/6 79/3/6
f 74/4/6 78/4/6 80/4/6
f 78/4/6 79/4/6 80/4/6
f 79/4/6 75/4/6 81/4/6
f 80/4/6 79/4/6 81/4/6
