# MagicaVoxel @ Ephtracy

# group
o 

# material
mtllib LoadPair_01.mtl
usemtl palette

# normals
vn -1 0 0
vn 1 0 0
vn 0 0 1
vn 0 0 -1
vn 0 -1 0
vn 0 1 0

# texcoords
vt 0.970703 0.5
vt 0.978516 0.5
vt 0.982422 0.5
vt 0.986328 0.5

# verts
v -6 0 0.5
v -6 0 -0.4
v -6 0 -0.5
v -6 0.1 0.5
v -6 0.1 -0.4
v -6 0.1 -0.5
v 6 0 0.5
v 6 0 -0.5
v 6 0.1 0.5
v 6 0.1 -0.5
v -6 0 0.5
v -6 0.1 0.5
v -2 0 0.5
v -2 0.1 0.5
v 2 0 0.5
v 2 0.1 0.5
v 6 0 0.5
v 6 0.1 0.5
v -6 0 -0.5
v -6 0.1 -0.5
v -5 0 -0.5
v -5 0.1 -0.5
v -4 0 -0.5
v -4 0.1 -0.5
v -3 0 -0.5
v -3 0.1 -0.5
v -2 0 -0.5
v -2 0.1 -0.5
v -1 0 -0.5
v -1 0.1 -0.5
v 0 0 -0.5
v 0 0.1 -0.5
v 1 0 -0.5
v 1 0.1 -0.5
v 2 0 -0.5
v 2 0.1 -0.5
v 3 0 -0.5
v 3 0.1 -0.5
v 4 0 -0.5
v 4 0.1 -0.5
v 5 0 -0.5
v 5 0.1 -0.5
v 6 0 -0.5
v 6 0.1 -0.5
v -6 0 0.5
v -2 0 0.5
v 2 0 0.5
v 6 0 0.5
v -6 0 -0.4
v -5 0 -0.4
v -4 0 -0.4
v -3 0 -0.4
v -2 0 -0.4
v -1 0 -0.4
v 0 0 -0.4
v 1 0 -0.4
v 2 0 -0.4
v 3 0 -0.4
v 4 0 -0.4
v 5 0 -0.4
v -6 0 -0.5
v -5 0 -0.5
v -4 0 -0.5
v -3 0 -0.5
v -2 0 -0.5
v -1 0 -0.5
v 0 0 -0.5
v 1 0 -0.5
v 2 0 -0.5
v 3 0 -0.5
v 4 0 -0.5
v 5 0 -0.5
v 6 0 -0.5
v -6 0.1 0.5
v -2 0.1 0.5
v 2 0.1 0.5
v 6 0.1 0.5
v -6 0.1 -0.4
v -5 0.1 -0.4
v -4 0.1 -0.4
v -3 0.1 -0.4
v -2 0.1 -0.4
v -1 0.1 -0.4
v 0 0.1 -0.4
v 1 0.1 -0.4
v 2 0.1 -0.4
v 3 0.1 -0.4
v 4 0.1 -0.4
v 5 0.1 -0.4
v -6 0.1 -0.5
v -5 0.1 -0.5
v -4 0.1 -0.5
v -3 0.1 -0.5
v -2 0.1 -0.5
v -1 0.1 -0.5
v 0 0.1 -0.5
v 1 0.1 -0.5
v 2 0.1 -0.5
v 3 0.1 -0.5
v 4 0.1 -0.5
v 5 0.1 -0.5
v 6 0.1 -0.5

# faces
f 4/4/1 2/4/1 1/4/1
f 5/2/1 3/2/1 2/2/1
f 5/4/1 2/4/1 4/4/1
f 6/2/1 3/2/1 5/2/1
f 7/4/2 8/4/2 9/4/2
f 9/4/2 8/4/2 10/4/2
f 13/4/3 12/4/3 11/4/3
f 14/4/3 12/4/3 13/4/3
f 15/3/3 14/3/3 13/3/3
f 16/3/3 14/3/3 15/3/3
f 17/4/3 16/4/3 15/4/3
f 18/4/3 16/4/3 17/4/3
f 19/2/4 20/2/4 21/2/4
f 21/2/4 20/2/4 22/2/4
f 21/4/4 22/4/4 23/4/4
f 23/4/4 22/4/4 24/4/4
f 23/2/4 24/2/4 25/2/4
f 25/2/4 24/2/4 26/2/4
f 25/4/4 26/4/4 27/4/4
f 27/4/4 26/4/4 28/4/4
f 27/1/4 28/1/4 29/1/4
f 29/1/4 28/1/4 30/1/4
f 29/3/4 30/3/4 31/3/4
f 31/3/4 30/3/4 32/3/4
f 31/1/4 32/1/4 33/1/4
f 33/1/4 32/1/4 34/1/4
f 33/3/4 34/3/4 35/3/4
f 35/3/4 34/3/4 36/3/4
f 35/2/4 36/2/4 37/2/4
f 37/2/4 36/2/4 38/2/4
f 37/4/4 38/4/4 39/4/4
f 39/4/4 38/4/4 40/4/4
f 39/2/4 40/2/4 41/2/4
f 41/2/4 40/2/4 42/2/4
f 41/4/4 42/4/4 43/4/4
f 43/4/4 42/4/4 44/4/4
f 49/4/5 46/4/5 45/4/5
f 50/4/5 46/4/5 49/4/5
f 51/4/5 46/4/5 50/4/5
f 52/4/5 46/4/5 51/4/5
f 53/3/5 47/3/5 46/3/5
f 53/4/5 46/4/5 52/4/5
f 54/3/5 47/3/5 53/3/5
f 55/3/5 47/3/5 54/3/5
f 56/3/5 47/3/5 55/3/5
f 57/4/5 48/4/5 47/4/5
f 57/3/5 47/3/5 56/3/5
f 58/4/5 48/4/5 57/4/5
f 59/4/5 48/4/5 58/4/5
f 60/4/5 48/4/5 59/4/5
f 61/2/5 50/2/5 49/2/5
f 62/4/5 51/4/5 50/4/5
f 62/2/5 50/2/5 61/2/5
f 63/2/5 52/2/5 51/2/5
f 63/4/5 51/4/5 62/4/5
f 64/4/5 53/4/5 52/4/5
f 64/2/5 52/2/5 63/2/5
f 65/1/5 54/1/5 53/1/5
f 65/4/5 53/4/5 64/4/5
f 66/3/5 55/3/5 54/3/5
f 66/1/5 54/1/5 65/1/5
f 67/1/5 56/1/5 55/1/5
f 67/3/5 55/3/5 66/3/5
f 68/3/5 57/3/5 56/3/5
f 68/1/5 56/1/5 67/1/5
f 69/2/5 58/2/5 57/2/5
f 69/3/5 57/3/5 68/3/5
f 70/4/5 59/4/5 58/4/5
f 70/2/5 58/2/5 69/2/5
f 71/2/5 60/2/5 59/2/5
f 71/4/5 59/4/5 70/4/5
f 72/4/5 48/4/5 60/4/5
f 72/2/5 60/2/5 71/2/5
f 73/4/5 48/4/5 72/4/5
f 74/4/6 75/4/6 78/4/6
f 78/4/6 75/4/6 79/4/6
f 79/4/6 75/4/6 80/4/6
f 80/4/6 75/4/6 81/4/6
f 75/3/6 76/3/6 82/3/6
f 81/4/6 75/4/6 82/4/6
f 82/3/6 76/3/6 83/3/6
f 83/3/6 76/3/6 84/3/6
f 84/3/6 76/3/6 85/3/6
f 76/4/6 77/4/6 86/4/6
f 85/3/6 76/3/6 86/3/6
f 86/4/6 77/4/6 87/4/6
f 87/4/6 77/4/6 88/4/6
f 88/4/6 77/4/6 89/4/6
f 78/2/6 79/2/6 90/2/6
f 79/4/6 80/4/6 91/4/6
f 90/2/6 79/2/6 91/2/6
f 80/2/6 81/2/6 92/2/6
f 91/4/6 80/4/6 92/4/6
f 81/4/6 82/4/6 93/4/6
f 92/2/6 81/2/6 93/2/6
f 82/1/6 83/1/6 94/1/6
f 93/4/6 82/4/6 94/4/6
f 83/3/6 84/3/6 95/3/6
f 94/1/6 83/1/6 95/1/6
f 84/1/6 85/1/6 96/1/6
f 95/3/6 84/3/6 96/3/6
f 85/3/6 86/3/6 97/3/6
f 96/1/6 85/1/6 97/1/6
f 86/2/6 87/2/6 98/2/6
f 97/3/6 86/3/6 98/3/6
f 87/4/6 88/4/6 99/4/6
f 98/2/6 87/2/6 99/2/6
f 88/2/6 89/2/6 100/2/6
f 99/4/6 88/4/6 100/4/6
f 89/4/6 77/4/6 101/4/6
f 100/2/6 89/2/6 101/2/6
f 101/4/6 77/4/6 102/4/6
