# MagicaVoxel @ Ephtracy

# group
o 

# material
mtllib LoadPair_03.mtl
usemtl palette

# normals
vn -1 0 0
vn 1 0 0
vn 0 0 1
vn 0 0 -1
vn 0 -1 0
vn 0 1 0

# texcoords
vt 0.970703 0.5
vt 0.978516 0.5
vt 0.982422 0.5
vt 0.986328 0.5

# verts
v -6 0 0.5
v -6 0 0.4
v -6 0 -0.4
v -6 0 -0.5
v -6 0.1 0.5
v -6 0.1 0.4
v -6 0.1 -0.4
v -6 0.1 -0.5
v 6 0 0.5
v 6 0 -0.5
v 6 0.1 0.5
v 6 0.1 -0.5
v -6 0 0.5
v -6 0.1 0.5
v -5 0 0.5
v -5 0.1 0.5
v -4 0 0.5
v -4 0.1 0.5
v -3 0 0.5
v -3 0.1 0.5
v -2 0 0.5
v -2 0.1 0.5
v -1 0 0.5
v -1 0.1 0.5
v 0 0 0.5
v 0 0.1 0.5
v 1 0 0.5
v 1 0.1 0.5
v 2 0 0.5
v 2 0.1 0.5
v 3 0 0.5
v 3 0.1 0.5
v 4 0 0.5
v 4 0.1 0.5
v 5 0 0.5
v 5 0.1 0.5
v 6 0 0.5
v 6 0.1 0.5
v -6 0 -0.5
v -6 0.1 -0.5
v -5 0 -0.5
v -5 0.1 -0.5
v -4 0 -0.5
v -4 0.1 -0.5
v -3 0 -0.5
v -3 0.1 -0.5
v -2 0 -0.5
v -2 0.1 -0.5
v -1 0 -0.5
v -1 0.1 -0.5
v 0 0 -0.5
v 0 0.1 -0.5
v 1 0 -0.5
v 1 0.1 -0.5
v 2 0 -0.5
v 2 0.1 -0.5
v 3 0 -0.5
v 3 0.1 -0.5
v 4 0 -0.5
v 4 0.1 -0.5
v 5 0 -0.5
v 5 0.1 -0.5
v 6 0 -0.5
v 6 0.1 -0.5
v -6 0 0.5
v -5 0 0.5
v -4 0 0.5
v -3 0 0.5
v -2 0 0.5
v -1 0 0.5
v 0 0 0.5
v 1 0 0.5
v 2 0 0.5
v 3 0 0.5
v 4 0 0.5
v 5 0 0.5
v 6 0 0.5
v -6 0 0.4
v -5 0 0.4
v -4 0 0.4
v -3 0 0.4
v -2 0 0.4
v -1 0 0.4
v 0 0 0.4
v 1 0 0.4
v 2 0 0.4
v 3 0 0.4
v 4 0 0.4
v 5 0 0.4
v -6 0 -0.4
v -5 0 -0.4
v -4 0 -0.4
v -3 0 -0.4
v -2 0 -0.4
v -1 0 -0.4
v 0 0 -0.4
v 1 0 -0.4
v 2 0 -0.4
v 3 0 -0.4
v 4 0 -0.4
v 5 0 -0.4
v -6 0 -0.5
v -5 0 -0.5
v -4 0 -0.5
v -3 0 -0.5
v -2 0 -0.5
v -1 0 -0.5
v 0 0 -0.5
v 1 0 -0.5
v 2 0 -0.5
v 3 0 -0.5
v 4 0 -0.5
v 5 0 -0.5
v 6 0 -0.5
v -6 0.1 0.5
v -5 0.1 0.5
v -4 0.1 0.5
v -3 0.1 0.5
v -2 0.1 0.5
v -1 0.1 0.5
v 0 0.1 0.5
v 1 0.1 0.5
v 2 0.1 0.5
v 3 0.1 0.5
v 4 0.1 0.5
v 5 0.1 0.5
v 6 0.1 0.5
v -6 0.1 0.4
v -5 0.1 0.4
v -4 0.1 0.4
v -3 0.1 0.4
v -2 0.1 0.4
v -1 0.1 0.4
v 0 0.1 0.4
v 1 0.1 0.4
v 2 0.1 0.4
v 3 0.1 0.4
v 4 0.1 0.4
v 5 0.1 0.4
v -6 0.1 -0.4
v -5 0.1 -0.4
v -4 0.1 -0.4
v -3 0.1 -0.4
v -2 0.1 -0.4
v -1 0.1 -0.4
v 0 0.1 -0.4
v 1 0.1 -0.4
v 2 0.1 -0.4
v 3 0.1 -0.4
v 4 0.1 -0.4
v 5 0.1 -0.4
v -6 0.1 -0.5
v -5 0.1 -0.5
v -4 0.1 -0.5
v -3 0.1 -0.5
v -2 0.1 -0.5
v -1 0.1 -0.5
v 0 0.1 -0.5
v 1 0.1 -0.5
v 2 0.1 -0.5
v 3 0.1 -0.5
v 4 0.1 -0.5
v 5 0.1 -0.5
v 6 0.1 -0.5

# faces
f 5/2/1 2/2/1 1/2/1
f 6/4/1 3/4/1 2/4/1
f 6/2/1 2/2/1 5/2/1
f 7/2/1 4/2/1 3/2/1
f 7/4/1 3/4/1 6/4/1
f 8/2/1 4/2/1 7/2/1
f 9/4/2 10/4/2 11/4/2
f 11/4/2 10/4/2 12/4/2
f 15/2/3 14/2/3 13/2/3
f 16/2/3 14/2/3 15/2/3
f 17/4/3 16/4/3 15/4/3
f 18/4/3 16/4/3 17/4/3
f 19/2/3 18/2/3 17/2/3
f 20/2/3 18/2/3 19/2/3
f 21/4/3 20/4/3 19/4/3
f 22/4/3 20/4/3 21/4/3
f 23/1/3 22/1/3 21/1/3
f 24/1/3 22/1/3 23/1/3
f 25/3/3 24/3/3 23/3/3
f 26/3/3 24/3/3 25/3/3
f 27/1/3 26/1/3 25/1/3
f 28/1/3 26/1/3 27/1/3
f 29/3/3 28/3/3 27/3/3
f 30/3/3 28/3/3 29/3/3
f 31/2/3 30/2/3 29/2/3
f 32/2/3 30/2/3 31/2/3
f 33/4/3 32/4/3 31/4/3
f 34/4/3 32/4/3 33/4/3
f 35/2/3 34/2/3 33/2/3
f 36/2/3 34/2/3 35/2/3
f 37/4/3 36/4/3 35/4/3
f 38/4/3 36/4/3 37/4/3
f 39/2/4 40/2/4 41/2/4
f 41/2/4 40/2/4 42/2/4
f 41/4/4 42/4/4 43/4/4
f 43/4/4 42/4/4 44/4/4
f 43/2/4 44/2/4 45/2/4
f 45/2/4 44/2/4 46/2/4
f 45/4/4 46/4/4 47/4/4
f 47/4/4 46/4/4 48/4/4
f 47/1/4 48/1/4 49/1/4
f 49/1/4 48/1/4 50/1/4
f 49/3/4 50/3/4 51/3/4
f 51/3/4 50/3/4 52/3/4
f 51/1/4 52/1/4 53/1/4
f 53/1/4 52/1/4 54/1/4
f 53/3/4 54/3/4 55/3/4
f 55/3/4 54/3/4 56/3/4
f 55/2/4 56/2/4 57/2/4
f 57/2/4 56/2/4 58/2/4
f 57/4/4 58/4/4 59/4/4
f 59/4/4 58/4/4 60/4/4
f 59/2/4 60/2/4 61/2/4
f 61/2/4 60/2/4 62/2/4
f 61/4/4 62/4/4 63/4/4
f 63/4/4 62/4/4 64/4/4
f 78/2/5 66/2/5 65/2/5
f 79/4/5 67/4/5 66/4/5
f 79/2/5 66/2/5 78/2/5
f 80/2/5 68/2/5 67/2/5
f 80/4/5 67/4/5 79/4/5
f 81/4/5 69/4/5 68/4/5
f 81/2/5 68/2/5 80/2/5
f 82/1/5 70/1/5 69/1/5
f 82/4/5 69/4/5 81/4/5
f 83/3/5 71/3/5 70/3/5
f 83/1/5 70/1/5 82/1/5
f 84/1/5 72/1/5 71/1/5
f 84/3/5 71/3/5 83/3/5
f 85/3/5 73/3/5 72/3/5
f 85/1/5 72/1/5 84/1/5
f 86/2/5 74/2/5 73/2/5
f 86/3/5 73/3/5 85/3/5
f 87/4/5 75/4/5 74/4/5
f 87/2/5 74/2/5 86/2/5
f 88/2/5 76/2/5 75/2/5
f 88/4/5 75/4/5 87/4/5
f 89/4/5 77/4/5 76/4/5
f 89/2/5 76/2/5 88/2/5
f 90/4/5 79/4/5 78/4/5
f 90/4/5 80/4/5 79/4/5
f 90/4/5 81/4/5 80/4/5
f 90/4/5 82/4/5 81/4/5
f 91/4/5 82/4/5 90/4/5
f 92/4/5 82/4/5 91/4/5
f 93/4/5 82/4/5 92/4/5
f 94/3/5 86/3/5 85/3/5
f 94/4/5 82/4/5 93/4/5
f 94/3/5 83/3/5 82/3/5
f 94/3/5 84/3/5 83/3/5
f 94/3/5 85/3/5 84/3/5
f 95/3/5 86/3/5 94/3/5
f 96/3/5 86/3/5 95/3/5
f 97/3/5 86/3/5 96/3/5
f 98/4/5 88/4/5 87/4/5
f 98/3/5 86/3/5 97/3/5
f 98/4/5 89/4/5 88/4/5
f 98/4/5 87/4/5 86/4/5
f 99/4/5 89/4/5 98/4/5
f 100/4/5 89/4/5 99/4/5
f 101/4/5 77/4/5 89/4/5
f 101/4/5 89/4/5 100/4/5
f 102/2/5 91/2/5 90/2/5
f 103/4/5 92/4/5 91/4/5
f 103/2/5 91/2/5 102/2/5
f 104/2/5 93/2/5 92/2/5
f 104/4/5 92/4/5 103/4/5
f 105/4/5 94/4/5 93/4/5
f 105/2/5 93/2/5 104/2/5
f 106/1/5 95/1/5 94/1/5
f 106/4/5 94/4/5 105/4/5
f 107/3/5 96/3/5 95/3/5
f 107/1/5 95/1/5 106/1/5
f 108/1/5 97/1/5 96/1/5
f 108/3/5 96/3/5 107/3/5
f 109/3/5 98/3/5 97/3/5
f 109/1/5 97/1/5 108/1/5
f 110/2/5 99/2/5 98/2/5
f 110/3/5 98/3/5 109/3/5
f 111/4/5 100/4/5 99/4/5
f 111/2/5 99/2/5 110/2/5
f 112/2/5 101/2/5 100/2/5
f 112/4/5 100/4/5 111/4/5
f 113/4/5 77/4/5 101/4/5
f 113/2/5 101/2/5 112/2/5
f 114/4/5 77/4/5 113/4/5
f 115/2/6 116/2/6 128/2/6
f 116/4/6 117/4/6 129/4/6
f 128/2/6 116/2/6 129/2/6
f 117/2/6 118/2/6 130/2/6
f 129/4/6 117/4/6 130/4/6
f 118/4/6 119/4/6 131/4/6
f 130/2/6 118/2/6 131/2/6
f 119/1/6 120/1/6 132/1/6
f 131/4/6 119/4/6 132/4/6
f 120/3/6 121/3/6 133/3/6
f 132/1/6 120/1/6 133/1/6
f 121/1/6 122/1/6 134/1/6
f 133/3/6 121/3/6 134/3/6
f 122/3/6 123/3/6 135/3/6
f 134/1/6 122/1/6 135/1/6
f 123/2/6 124/2/6 136/2/6
f 135/3/6 123/3/6 136/3/6
f 124/4/6 125/4/6 137/4/6
f 136/2/6 124/2/6 137/2/6
f 125/2/6 126/2/6 138/2/6
f 137/4/6 125/4/6 138/4/6
f 126/4/6 127/4/6 139/4/6
f 138/2/6 126/2/6 139/2/6
f 128/4/6 129/4/6 140/4/6
f 129/4/6 130/4/6 140/4/6
f 130/4/6 131/4/6 140/4/6
f 131/4/6 132/4/6 140/4/6
f 140/4/6 132/4/6 141/4/6
f 141/4/6 132/4/6 142/4/6
f 142/4/6 132/4/6 143/4/6
f 135/3/6 136/3/6 144/3/6
f 143/4/6 132/4/6 144/4/6
f 132/3/6 133/3/6 144/3/6
f 133/3/6 134/3/6 144/3/6
f 134/3/6 135/3/6 144/3/6
f 144/3/6 136/3/6 145/3/6
f 145/3/6 136/3/6 146/3/6
f 146/3/6 136/3/6 147/3/6
f 137/4/6 138/4/6 148/4/6
f 147/3/6 136/3/6 148/3/6
f 138/4/6 139/4/6 148/4/6
f 136/4/6 137/4/6 148/4/6
f 148/4/6 139/4/6 149/4/6
f 149/4/6 139/4/6 150/4/6
f 139/4/6 127/4/6 151/4/6
f 150/4/6 139/4/6 151/4/6
f 140/2/6 141/2/6 152/2/6
f 141/4/6 142/4/6 153/4/6
f 152/2/6 141/2/6 153/2/6
f 142/2/6 143/2/6 154/2/6
f 153/4/6 142/4/6 154/4/6
f 143/4/6 144/4/6 155/4/6
f 154/2/6 143/2/6 155/2/6
f 144/1/6 145/1/6 156/1/6
f 155/4/6 144/4/6 156/4/6
f 145/3/6 146/3/6 157/3/6
f 156/1/6 145/1/6 157/1/6
f 146/1/6 147/1/6 158/1/6
f 157/3/6 146/3/6 158/3/6
f 147/3/6 148/3/6 159/3/6
f 158/1/6 147/1/6 159/1/6
f 148/2/6 149/2/6 160/2/6
f 159/3/6 148/3/6 160/3/6
f 149/4/6 150/4/6 161/4/6
f 160/2/6 149/2/6 161/2/6
f 150/2/6 151/2/6 162/2/6
f 161/4/6 150/4/6 162/4/6
f 151/4/6 127/4/6 163/4/6
f 162/2/6 151/2/6 163/2/6
f 163/4/6 127/4/6 164/4/6
