# MagicaVoxel @ Ephtracy

# group
o 

# material
mtllib LoadPair_02.mtl
usemtl palette

# normals
vn -1 0 0
vn 1 0 0
vn 0 0 1
vn 0 0 -1
vn 0 -1 0
vn 0 1 0

# texcoords
vt 0.970703 0.5
vt 0.978516 0.5
vt 0.982422 0.5
vt 0.986328 0.5

# verts
v -6 0 0.5
v -6 0 0.4
v -6 0 -0.5
v -6 0.1 0.5
v -6 0.1 0.4
v -6 0.1 -0.5
v 6 0 0.5
v 6 0 -0.5
v 6 0.1 0.5
v 6 0.1 -0.5
v -6 0 0.5
v -6 0.1 0.5
v -5 0 0.5
v -5 0.1 0.5
v -4 0 0.5
v -4 0.1 0.5
v -3 0 0.5
v -3 0.1 0.5
v -2 0 0.5
v -2 0.1 0.5
v -1 0 0.5
v -1 0.1 0.5
v 0 0 0.5
v 0 0.1 0.5
v 1 0 0.5
v 1 0.1 0.5
v 2 0 0.5
v 2 0.1 0.5
v 3 0 0.5
v 3 0.1 0.5
v 4 0 0.5
v 4 0.1 0.5
v 5 0 0.5
v 5 0.1 0.5
v 6 0 0.5
v 6 0.1 0.5
v -6 0 -0.5
v -6 0.1 -0.5
v -2 0 -0.5
v -2 0.1 -0.5
v 2 0 -0.5
v 2 0.1 -0.5
v 6 0 -0.5
v 6 0.1 -0.5
v -6 0 0.5
v -5 0 0.5
v -4 0 0.5
v -3 0 0.5
v -2 0 0.5
v -1 0 0.5
v 0 0 0.5
v 1 0 0.5
v 2 0 0.5
v 3 0 0.5
v 4 0 0.5
v 5 0 0.5
v 6 0 0.5
v -6 0 0.4
v -5 0 0.4
v -4 0 0.4
v -3 0 0.4
v -2 0 0.4
v -1 0 0.4
v 0 0 0.4
v 1 0 0.4
v 2 0 0.4
v 3 0 0.4
v 4 0 0.4
v 5 0 0.4
v -6 0 -0.5
v -2 0 -0.5
v 2 0 -0.5
v 6 0 -0.5
v -6 0.1 0.5
v -5 0.1 0.5
v -4 0.1 0.5
v -3 0.1 0.5
v -2 0.1 0.5
v -1 0.1 0.5
v 0 0.1 0.5
v 1 0.1 0.5
v 2 0.1 0.5
v 3 0.1 0.5
v 4 0.1 0.5
v 5 0.1 0.5
v 6 0.1 0.5
v -6 0.1 0.4
v -5 0.1 0.4
v -4 0.1 0.4
v -3 0.1 0.4
v -2 0.1 0.4
v -1 0.1 0.4
v 0 0.1 0.4
v 1 0.1 0.4
v 2 0.1 0.4
v 3 0.1 0.4
v 4 0.1 0.4
v 5 0.1 0.4
v -6 0.1 -0.5
v -2 0.1 -0.5
v 2 0.1 -0.5
v 6 0.1 -0.5

# faces
f 4/2/1 2/2/1 1/2/1
f 5/4/1 3/4/1 2/4/1
f 5/2/1 2/2/1 4/2/1
f 6/4/1 3/4/1 5/4/1
f 7/4/2 8/4/2 9/4/2
f 9/4/2 8/4/2 10/4/2
f 13/2/3 12/2/3 11/2/3
f 14/2/3 12/2/3 13/2/3
f 15/4/3 14/4/3 13/4/3
f 16/4/3 14/4/3 15/4/3
f 17/2/3 16/2/3 15/2/3
f 18/2/3 16/2/3 17/2/3
f 19/4/3 18/4/3 17/4/3
f 20/4/3 18/4/3 19/4/3
f 21/1/3 20/1/3 19/1/3
f 22/1/3 20/1/3 21/1/3
f 23/3/3 22/3/3 21/3/3
f 24/3/3 22/3/3 23/3/3
f 25/1/3 24/1/3 23/1/3
f 26/1/3 24/1/3 25/1/3
f 27/3/3 26/3/3 25/3/3
f 28/3/3 26/3/3 27/3/3
f 29/2/3 28/2/3 27/2/3
f 30/2/3 28/2/3 29/2/3
f 31/4/3 30/4/3 29/4/3
f 32/4/3 30/4/3 31/4/3
f 33/2/3 32/2/3 31/2/3
f 34/2/3 32/2/3 33/2/3
f 35/4/3 34/4/3 33/4/3
f 36/4/3 34/4/3 35/4/3
f 37/4/4 38/4/4 39/4/4
f 39/4/4 38/4/4 40/4/4
f 39/3/4 40/3/4 41/3/4
f 41/3/4 40/3/4 42/3/4
f 41/4/4 42/4/4 43/4/4
f 43/4/4 42/4/4 44/4/4
f 58/2/5 46/2/5 45/2/5
f 59/4/5 47/4/5 46/4/5
f 59/2/5 46/2/5 58/2/5
f 60/2/5 48/2/5 47/2/5
f 60/4/5 47/4/5 59/4/5
f 61/4/5 49/4/5 48/4/5
f 61/2/5 48/2/5 60/2/5
f 62/1/5 50/1/5 49/1/5
f 62/4/5 49/4/5 61/4/5
f 63/3/5 51/3/5 50/3/5
f 63/1/5 50/1/5 62/1/5
f 64/1/5 52/1/5 51/1/5
f 64/3/5 51/3/5 63/3/5
f 65/3/5 53/3/5 52/3/5
f 65/1/5 52/1/5 64/1/5
f 66/2/5 54/2/5 53/2/5
f 66/3/5 53/3/5 65/3/5
f 67/4/5 55/4/5 54/4/5
f 67/2/5 54/2/5 66/2/5
f 68/2/5 56/2/5 55/2/5
f 68/4/5 55/4/5 67/4/5
f 69/4/5 57/4/5 56/4/5
f 69/2/5 56/2/5 68/2/5
f 70/4/5 59/4/5 58/4/5
f 70/4/5 60/4/5 59/4/5
f 70/4/5 61/4/5 60/4/5
f 70/4/5 62/4/5 61/4/5
f 71/3/5 66/3/5 65/3/5
f 71/4/5 62/4/5 70/4/5
f 71/3/5 63/3/5 62/3/5
f 71/3/5 65/3/5 64/3/5
f 71/3/5 64/3/5 63/3/5
f 72/4/5 68/4/5 67/4/5
f 72/3/5 66/3/5 71/3/5
f 72/4/5 69/4/5 68/4/5
f 72/4/5 67/4/5 66/4/5
f 73/4/5 57/4/5 69/4/5
f 73/4/5 69/4/5 72/4/5
f 74/2/6 75/2/6 87/2/6
f 75/4/6 76/4/6 88/4/6
f 87/2/6 75/2/6 88/2/6
f 76/2/6 77/2/6 89/2/6
f 88/4/6 76/4/6 89/4/6
f 77/4/6 78/4/6 90/4/6
f 89/2/6 77/2/6 90/2/6
f 78/1/6 79/1/6 91/1/6
f 90/4/6 78/4/6 91/4/6
f 79/3/6 80/3/6 92/3/6
f 91/1/6 79/1/6 92/1/6
f 80/1/6 81/1/6 93/1/6
f 92/3/6 80/3/6 93/3/6
f 81/3/6 82/3/6 94/3/6
f 93/1/6 81/1/6 94/1/6
f 82/2/6 83/2/6 95/2/6
f 94/3/6 82/3/6 95/3/6
f 83/4/6 84/4/6 96/4/6
f 95/2/6 83/2/6 96/2/6
f 84/2/6 85/2/6 97/2/6
f 96/4/6 84/4/6 97/4/6
f 85/4/6 86/4/6 98/4/6
f 97/2/6 85/2/6 98/2/6
f 87/4/6 88/4/6 99/4/6
f 88/4/6 89/4/6 99/4/6
f 89/4/6 90/4/6 99/4/6
f 90/4/6 91/4/6 99/4/6
f 94/3/6 95/3/6 100/3/6
f 99/4/6 91/4/6 100/4/6
f 91/3/6 92/3/6 100/3/6
f 93/3/6 94/3/6 100/3/6
f 92/3/6 93/3/6 100/3/6
f 96/4/6 97/4/6 101/4/6
f 100/3/6 95/3/6 101/3/6
f 97/4/6 98/4/6 101/4/6
f 95/4/6 96/4/6 101/4/6
f 98/4/6 86/4/6 102/4/6
f 101/4/6 98/4/6 102/4/6
